<svg xmlns="http://www.w3.org/2000/svg" xmlns:xlink="http://www.w3.org/1999/xlink" width="636" viewBox="0 0 476.87997 479.249994" height="639" preserveAspectRatio="xMidYMid meet"><defs><g></g><clipPath id="badefced55"><path d="M 435 228 L 456 228 L 456 250 L 435 250 Z M 435 228 " clip-rule="nonzero"></path></clipPath><clipPath id="d384c69a4f"><path d="M 436.796875 227.1875 L 457.257812 230.429688 L 454.015625 250.886719 L 433.554688 247.648438 Z M 436.796875 227.1875 " clip-rule="nonzero"></path></clipPath><clipPath id="2d0c0a6197"><path d="M 447.027344 228.808594 C 441.375 227.914062 436.070312 231.769531 435.175781 237.417969 C 434.28125 243.066406 438.136719 248.375 443.785156 249.269531 C 449.433594 250.164062 454.742188 246.308594 455.636719 240.660156 C 456.53125 235.007812 452.675781 229.703125 447.027344 228.808594 Z M 447.027344 228.808594 " clip-rule="nonzero"></path></clipPath><clipPath id="8133843d01"><path d="M 26 229 L 48 229 L 48 251 L 26 251 Z M 26 229 " clip-rule="nonzero"></path></clipPath><clipPath id="b91927ebeb"><path d="M 28.191406 227.9375 L 48.652344 231.175781 L 45.410156 251.636719 L 24.949219 248.398438 Z M 28.191406 227.9375 " clip-rule="nonzero"></path></clipPath><clipPath id="a4b084bbdb"><path d="M 38.421875 229.558594 C 32.773438 228.660156 27.464844 232.515625 26.570312 238.167969 C 25.675781 243.816406 29.53125 249.121094 35.179688 250.015625 C 40.832031 250.910156 46.136719 247.058594 47.03125 241.40625 C 47.925781 235.757812 44.070312 230.453125 38.421875 229.558594 Z M 38.421875 229.558594 " clip-rule="nonzero"></path></clipPath></defs><g clip-path="url(#badefced55)"><g clip-path="url(#d384c69a4f)"><g clip-path="url(#2d0c0a6197)"><path fill="#f8bb1b" d="M 436.796875 227.1875 L 457.257812 230.429688 L 454.015625 250.886719 L 433.554688 247.648438 Z M 436.796875 227.1875 " fill-opacity="1" fill-rule="nonzero"></path></g></g></g><g fill="#000000" fill-opacity="1"><g transform="translate(424.088676, 196.138173)"><g><path d="M 10.234375 21.453125 C 5.828125 22.160156 3.300781 20.523438 2.65625 16.546875 L 1.953125 12.140625 L 7.34375 11.28125 L 7.828125 14.34375 C 7.960938 15.15625 8.453125 15.492188 9.296875 15.359375 L 20.1875 13.609375 L 19.203125 7.53125 L 1.390625 8.65625 L 0.390625 2.453125 L 18.1875 1.609375 L 17.703125 -1.375 L 23.203125 -2.25 L 26.59375 18.828125 Z M 10.234375 21.453125 "></path></g></g></g><g fill="#000000" fill-opacity="1"><g transform="translate(417.733864, 173.777602)"><g><path d="M 6.625 22.8125 L 4.859375 16.75 L 14.703125 5.09375 C 14.265625 4.757812 13.78125 4.671875 13.25 4.828125 L 2.328125 8 L 0.640625 2.203125 L 10.453125 -0.640625 C 11.398438 -0.921875 12.160156 -0.957031 12.734375 -0.75 C 13.515625 -0.5 14.300781 -0.175781 15.09375 0.21875 C 15.894531 0.613281 16.707031 1.082031 17.53125 1.625 L 22.34375 -4.6875 L 22.828125 -4.828125 L 24.640625 1.4375 L 16.34375 11.65625 C 16.820312 11.945312 17.207031 12.050781 17.5 11.96875 L 26.90625 9.234375 L 28.640625 15.1875 L 20.75 17.46875 C 19.925781 17.707031 19.15625 17.71875 18.4375 17.5 C 17.351562 17.15625 15.695312 16.375 13.46875 15.15625 L 7.15625 22.65625 Z M 6.625 22.8125 "></path></g></g></g><g fill="#000000" fill-opacity="1"><g transform="translate(408.029449, 152.007041)"><g><path d="M 15.15625 18.3125 C 11.0625 20.070312 8.21875 19.101562 6.625 15.40625 L 4.859375 11.296875 L 9.875 9.140625 L 11.09375 11.984375 C 11.425781 12.742188 11.984375 12.957031 12.765625 12.625 L 22.90625 8.265625 L 20.46875 2.59375 L 3.46875 8.046875 L 0.984375 2.28125 L 18.015625 -2.859375 L 16.828125 -5.65625 L 21.953125 -7.859375 L 30.390625 11.765625 Z M 15.15625 18.3125 "></path></g></g></g><g fill="#000000" fill-opacity="1"><g transform="translate(402.382093, 142.001387)"><g><path d="M -1.3125 12.4375 L -4.296875 6.984375 L 17.484375 -4.890625 L 16.234375 -7.1875 L 21.125 -9.859375 L 25.359375 -2.109375 Z M -1.3125 12.4375 "></path></g></g></g><g fill="#000000" fill-opacity="1"><g transform="translate(398.174893, 135.026506)"><g></g></g></g><g fill="#000000" fill-opacity="1"><g transform="translate(383.628436, 115.400607)"><g><path d="M 18.953125 14.34375 C 15.367188 17 12.375 16.707031 9.96875 13.46875 L 7.3125 9.890625 L 11.703125 6.640625 L 13.546875 9.125 C 14.046875 9.789062 14.632812 9.875 15.3125 9.375 L 24.1875 2.8125 L 20.515625 -2.140625 L 5.21875 7.046875 L 1.484375 2 L 16.890625 -6.90625 L 15.078125 -9.34375 L 19.5625 -12.671875 L 32.28125 4.484375 Z M 18.953125 14.34375 "></path></g></g></g><g fill="#000000" fill-opacity="1"><g transform="translate(374.442571, 105.735342)"><g><path d="M 12.671875 4.875 C 9.640625 7.613281 6.863281 7.585938 4.34375 4.796875 L 0.75 0.828125 L 4.796875 -2.828125 L 7.5625 0.21875 C 7.90625 0.613281 8.296875 0.613281 8.734375 0.21875 L 17.15625 -7.390625 L 14.640625 -10.171875 L 18.765625 -13.921875 L 25.375 -6.625 Z M 12.671875 4.875 "></path></g></g></g><g fill="#000000" fill-opacity="1"><g transform="translate(357.389906, 89.63727)"><g><path d="M 22.125 9.09375 C 20.40625 10.976562 18.488281 11.960938 16.375 12.046875 C 14.269531 12.109375 12.253906 11.265625 10.328125 9.515625 L 7.578125 7.015625 C 5.660156 5.273438 4.664062 3.441406 4.59375 1.515625 C 4.46875 -0.304688 5.171875 -2.0625 6.703125 -3.75 L 17.453125 -15.5625 L 21.984375 -11.453125 L 11.4375 0.140625 C 10.40625 1.273438 10.378906 2.289062 11.359375 3.1875 L 14.078125 5.671875 C 15.117188 6.609375 16.160156 6.5 17.203125 5.34375 L 24.28125 -2.421875 C 23.976562 -2.691406 23.660156 -2.832031 23.328125 -2.84375 L 19.375 -2.9375 L 18.78125 -3.484375 L 22.640625 -7.734375 L 24.375 -7.640625 C 25.601562 -7.609375 26.816406 -7.046875 28.015625 -5.953125 L 32.28125 -2.0625 Z M 22.125 9.09375 "></path></g></g></g><g fill="#000000" fill-opacity="1"><g transform="translate(340.285494, 77.898593)"><g><path d="M 24.28125 -0.53125 C 22.96875 1.28125 21.6875 2.617188 20.4375 3.484375 C 19.195312 4.316406 17.460938 5.0625 15.234375 5.71875 L 10.015625 7.203125 L 4.734375 3.40625 L 5.234375 2.71875 L 12.015625 0.6875 C 13.921875 0.144531 15.3125 -0.398438 16.1875 -0.953125 C 17.125 -1.566406 18.101562 -2.585938 19.125 -4.015625 L 21.03125 -6.65625 L 11.515625 -13.515625 L 18.546875 -23.296875 L 23.578125 -19.671875 L 19.796875 -14.421875 L 29.328125 -7.5625 Z M 24.28125 -0.53125 "></path></g></g></g><g fill="#000000" fill-opacity="1"><g transform="translate(330.443707, 72.212677)"><g><path d="M 13.59375 -2.65625 L 8.25 -5.84375 L 12.796875 -13.46875 L 10.546875 -14.8125 L 13.1875 -19.21875 L 20.78125 -14.6875 Z M 13.59375 -2.65625 "></path></g></g></g><g fill="#000000" fill-opacity="1"><g transform="translate(323.52012, 68.417776)"><g></g></g></g><g fill="#000000" fill-opacity="1"><g transform="translate(303.982332, 59.920859)"><g><path d="M 23.625 -5.640625 C 22.726562 -3.585938 21.753906 -2.007812 20.703125 -0.90625 C 19.671875 0.164062 18.132812 1.257812 16.09375 2.375 L 11.3125 4.921875 L 5.34375 2.328125 L 5.6875 1.546875 L 11.875 -1.859375 C 13.625 -2.796875 14.867188 -3.628906 15.609375 -4.359375 C 16.398438 -5.148438 17.148438 -6.351562 17.859375 -7.96875 L 19.15625 -10.953125 L 8.390625 -15.640625 L 13.1875 -26.6875 L 18.875 -24.203125 L 16.296875 -18.265625 L 27.078125 -13.578125 Z M 23.625 -5.640625 "></path></g></g></g><g fill="#000000" fill-opacity="1"><g transform="translate(281.985584, 53.069577)"><g><path d="M 21.515625 6.546875 L 15.578125 4.734375 L 20.734375 -12.1875 L 13.421875 -14.40625 L 8.265625 2.515625 L 2.328125 0.703125 L 9.109375 -21.546875 L 28.296875 -15.703125 Z M 21.515625 6.546875 "></path></g></g></g><g fill="#000000" fill-opacity="1"><g transform="translate(270.414601, 51.102653)"><g><path d="M 11.9375 -6.984375 L 5.859375 -8.234375 L 7.65625 -16.921875 L 5.078125 -17.453125 L 6.125 -22.484375 L 14.78125 -20.703125 Z M 11.9375 -6.984375 "></path></g></g></g><g fill="#000000" fill-opacity="1"><g transform="translate(258.774579, 49.468613)"><g><path d="M 11.5 -7.703125 L 5.34375 -8.578125 L 6.59375 -17.359375 L 4 -17.734375 L 4.71875 -22.828125 L 13.46875 -21.578125 Z M 11.5 -7.703125 "></path></g></g></g><g fill="#000000" fill-opacity="1"><g transform="translate(235.396849, 48.065433)"><g><path d="M 22.5 1.109375 L 2.4375 0.125 L 3.578125 -23.109375 L 23.640625 -22.125 Z M 16.625 -4.65625 L 17.234375 -16.875 L 9.453125 -17.25 L 8.84375 -5.03125 Z M 16.625 -4.65625 "></path></g></g></g><g fill="#000000" fill-opacity="1"><g transform="translate(227.543833, 48.714328)"><g></g></g></g><g fill="#000000" fill-opacity="1"><g transform="translate(206.312647, 50.843873)"><g><path d="M 18.53125 -19.859375 L 15.78125 -19.546875 L 17.734375 -1.96875 L 11.5625 -1.28125 L 9.609375 -18.859375 L -0.375 -17.75 L -1 -23.296875 L 17.90625 -25.40625 Z M 18.53125 -19.859375 "></path></g></g></g><g fill="#000000" fill-opacity="1"><g transform="translate(195.493858, 53.207791)"><g><path d="M 6.34375 -27.1875 C 6.90625 -24.320312 6.445312 -21.597656 4.96875 -19.015625 L 3.34375 -18.6875 L 3.015625 -18.96875 C 3.304688 -20.113281 3.132812 -22.285156 2.5 -25.484375 L 1.875 -28.6875 L 5.890625 -29.46875 Z M 0.390625 -26.015625 C 0.710938 -24.335938 0.785156 -22.929688 0.609375 -21.796875 C 0.453125 -20.648438 -0.0625 -19.332031 -0.9375 -17.84375 L -2.5625 -17.53125 L -2.890625 -17.8125 C -2.617188 -18.976562 -2.796875 -21.144531 -3.421875 -24.3125 L -4.046875 -27.515625 L -0.0625 -28.296875 Z M 0.390625 -26.015625 "></path></g></g></g><g fill="#000000" fill-opacity="1"><g transform="translate(175.920883, 58.529809)"><g><path d="M 17.890625 -5.0625 L 11.921875 -3.375 L 7.46875 -19.109375 C 7.21875 -19.960938 6.691406 -20.273438 5.890625 -20.046875 L -3.21875 -17.46875 L -4.734375 -22.84375 L 5.609375 -25.78125 C 9.566406 -26.894531 12.160156 -25.273438 13.390625 -20.921875 Z M 17.890625 -5.0625 "></path></g></g></g><g fill="#000000" fill-opacity="1"><g transform="translate(169.084046, 61.511165)"><g></g></g></g><g fill="#000000" fill-opacity="1"><g transform="translate(147.762318, 70.790711)"><g><path d="M 15.28125 -17.9375 C 16.46875 -15.34375 16.789062 -13 16.25 -10.90625 C 15.59375 -8.3125 13.71875 -6.300781 10.625 -4.875 L 0.796875 -0.359375 L -1.484375 -5.3125 L 2.421875 -7.109375 L -7.859375 -21.984375 L -2.375 -24.5 L 7.6875 -9.53125 L 9.1875 -10.21875 C 10.695312 -10.914062 11.007812 -12.234375 10.125 -14.171875 L 4.03125 -27.453125 L 9.71875 -30.0625 Z M 15.28125 -17.9375 "></path></g></g></g><g fill="#000000" fill-opacity="1"><g transform="translate(138.095884, 76.728474)"><g><path d="M 8.75 -5 L 3.34375 -1.921875 L -5.4375 -17.265625 L -7.515625 -16.0625 L -10.296875 -20.90625 L -2.8125 -25.1875 Z M 8.75 -5 "></path></g></g></g><g fill="#000000" fill-opacity="1"><g transform="translate(120.925484, 88.599357)"><g><path d="M 6.890625 -26.28125 L 4.609375 -24.703125 L 14.671875 -10.15625 L 9.578125 -6.625 L -0.484375 -21.171875 L -8.75 -15.453125 L -11.921875 -20.03125 L 3.71875 -30.859375 Z M 6.890625 -26.28125 "></path></g></g></g><g fill="#000000" fill-opacity="1"><g transform="translate(105.258604, 102.290896)"><g><path d="M 3.96875 -26.859375 L 1.890625 -25.046875 L 13.484375 -11.6875 L 8.796875 -7.625 L -2.796875 -20.984375 L -10.390625 -14.40625 L -14.046875 -18.625 L 0.3125 -31.078125 Z M 3.96875 -26.859375 "></path></g></g></g><g fill="#000000" fill-opacity="1"><g transform="translate(100.009514, 108.154433)"><g></g></g></g><g fill="#000000" fill-opacity="1"><g transform="translate(84.440608, 126.323306)"><g><path d="M 3.5625 -26.53125 C 5.457031 -24.945312 6.851562 -23.492188 7.75 -22.171875 C 8.71875 -20.742188 9.460938 -18.929688 9.984375 -16.734375 L 10.859375 -12.984375 L 6.75 -8.078125 L 6.125 -8.59375 L 4.640625 -14.515625 C 4.171875 -16.253906 3.550781 -17.632812 2.78125 -18.65625 C 2.28125 -19.363281 1.257812 -20.363281 -0.28125 -21.65625 L -3.03125 -23.953125 L -12.265625 -12.921875 L -16.53125 -16.5 L -3.328125 -32.296875 Z M 11.09375 -2.171875 L 7.15625 2.53125 L -9.265625 -11.1875 L -5.328125 -15.890625 Z M 11.09375 -2.171875 "></path></g></g></g><g fill="#000000" fill-opacity="1"><g transform="translate(73.209988, 142.834882)"><g><path d="M 10.234375 -15.53125 L 6.8125 -10.34375 L -6.84375 -19.34375 C -7.582031 -19.832031 -8.179688 -19.726562 -8.640625 -19.03125 L -13.84375 -11.125 L -18.5 -14.203125 L -12.578125 -23.1875 C -10.316406 -26.625 -7.300781 -27.097656 -3.53125 -24.609375 Z M 10.234375 -15.53125 "></path></g></g></g><g fill="#000000" fill-opacity="1"><g transform="translate(64.449738, 160.839162)"><g><path d="M 9.328125 -18.015625 L 0.71875 -1.375 L -4.125 -3.890625 L 0.6875 -13.203125 L -10.171875 -18.828125 L -14.84375 -9.796875 L -19.796875 -12.359375 L -12.3125 -26.828125 L 3.5 -18.640625 L 4.484375 -20.53125 Z M 9.328125 -18.015625 "></path></g></g></g><g fill="#000000" fill-opacity="1"><g transform="translate(56.605357, 180.767964)"><g><path d="M -8 -25.15625 C -6.9375 -24.738281 -6.117188 -24.160156 -5.546875 -23.421875 C -5.140625 -22.921875 -4.726562 -22.210938 -4.3125 -21.296875 C -4.007812 -20.597656 -3.757812 -20.035156 -3.5625 -19.609375 C -3.375 -19.179688 -3.238281 -18.898438 -3.15625 -18.765625 L 0.28125 -19.6875 C 1.476562 -20.007812 2.207031 -20.160156 2.46875 -20.140625 C 3.050781 -20.191406 3.796875 -20.046875 4.703125 -19.703125 L 7.234375 -18.71875 L 0.65625 -1.703125 L -4.4375 -3.671875 L -0.28125 -14.421875 L -0.3125 -14.4375 C -1.84375 -13.363281 -3.679688 -12.617188 -5.828125 -12.203125 L -20.640625 -9.359375 L -21.234375 -9.578125 L -18.9375 -15.546875 L -7.515625 -17.671875 C -7.804688 -18.296875 -8.394531 -18.78125 -9.28125 -19.125 L -16.484375 -21.90625 L -14.28125 -27.578125 Z M -8 -25.15625 "></path></g></g></g><g fill="#000000" fill-opacity="1"><g transform="translate(55.008256, 186.056713)"><g><path d="M -22.734375 -12.640625 C -21.128906 -12.148438 -19.921875 -11.640625 -19.109375 -11.109375 C -18.003906 -10.378906 -17 -9.296875 -16.09375 -7.859375 L -16.640625 -6.0625 L -17.046875 -5.90625 C -17.929688 -6.664062 -19.929688 -7.523438 -23.046875 -8.484375 L -26.171875 -9.4375 L -24.96875 -13.328125 Z M -22.734375 -12.640625 "></path></g></g></g><g fill="#000000" fill-opacity="1"><g transform="translate(52.16744, 197.609222)"><g><path d="M -6.390625 -12.265625 L -7.9375 -6.25 L -16.546875 -8.453125 L -17.203125 -5.90625 L -22.171875 -7.1875 L -19.96875 -15.75 Z M -6.390625 -12.265625 "></path></g></g></g><g fill="#000000" fill-opacity="1"><g transform="translate(48.570105, 221.085901)"><g><path d="M -10.53125 -24.609375 C -8.082031 -24.222656 -6.132812 -23.691406 -4.6875 -23.015625 C -3.125 -22.285156 -1.5625 -21.113281 0 -19.5 L 2.671875 -16.703125 L 1.65625 -10.40625 L 0.859375 -10.53125 L -3.4375 -14.84375 C -4.738281 -16.09375 -5.976562 -16.960938 -7.15625 -17.453125 C -7.957031 -17.804688 -9.351562 -18.144531 -11.34375 -18.46875 L -14.875 -19.03125 L -17.140625 -4.8125 L -22.640625 -5.6875 L -19.390625 -26.03125 Z M 8.421875 -7.546875 L 7.453125 -1.484375 L -13.6875 -4.859375 L -12.71875 -10.921875 Z M 8.421875 -7.546875 "></path></g></g></g><g clip-path="url(#8133843d01)"><g clip-path="url(#b91927ebeb)"><g clip-path="url(#a4b084bbdb)"><path fill="#f8bb1b" d="M 28.191406 227.9375 L 48.652344 231.175781 L 45.410156 251.636719 L 24.949219 248.398438 Z M 28.191406 227.9375 " fill-opacity="1" fill-rule="nonzero"></path></g></g></g><g fill="#000000" fill-opacity="1"><g transform="translate(52.353368, 281.931188)"><g><path d="M -10.234375 -21.453125 C -5.828125 -22.160156 -3.300781 -20.523438 -2.65625 -16.546875 L -1.953125 -12.140625 L -7.34375 -11.28125 L -7.828125 -14.34375 C -7.960938 -15.15625 -8.453125 -15.492188 -9.296875 -15.359375 L -20.1875 -13.609375 L -19.203125 -7.53125 L -1.390625 -8.65625 L -0.390625 -2.453125 L -18.1875 -1.609375 L -17.703125 1.375 L -23.203125 2.25 L -26.59375 -18.828125 Z M -10.234375 -21.453125 "></path></g></g></g><g fill="#000000" fill-opacity="1"><g transform="translate(58.708159, 304.291743)"><g><path d="M -6.625 -22.8125 L -4.859375 -16.75 L -14.703125 -5.09375 C -14.265625 -4.757812 -13.78125 -4.671875 -13.25 -4.828125 L -2.328125 -8 L -0.640625 -2.203125 L -10.453125 0.640625 C -11.398438 0.921875 -12.160156 0.957031 -12.734375 0.75 C -13.515625 0.5 -14.300781 0.175781 -15.09375 -0.21875 C -15.894531 -0.613281 -16.707031 -1.082031 -17.53125 -1.625 L -22.34375 4.6875 L -22.828125 4.828125 L -24.640625 -1.4375 L -16.34375 -11.65625 C -16.820312 -11.945312 -17.207031 -12.050781 -17.5 -11.96875 L -26.90625 -9.234375 L -28.640625 -15.1875 L -20.75 -17.46875 C -19.925781 -17.707031 -19.15625 -17.71875 -18.4375 -17.5 C -17.351562 -17.15625 -15.695312 -16.375 -13.46875 -15.15625 L -7.15625 -22.65625 Z M -6.625 -22.8125 "></path></g></g></g><g fill="#000000" fill-opacity="1"><g transform="translate(68.412585, 326.062321)"><g><path d="M -15.15625 -18.3125 C -11.0625 -20.070312 -8.21875 -19.101562 -6.625 -15.40625 L -4.859375 -11.296875 L -9.875 -9.140625 L -11.09375 -11.984375 C -11.425781 -12.742188 -11.984375 -12.957031 -12.765625 -12.625 L -22.90625 -8.265625 L -20.46875 -2.59375 L -3.46875 -8.046875 L -0.984375 -2.28125 L -18.015625 2.859375 L -16.828125 5.65625 L -21.953125 7.859375 L -30.390625 -11.765625 Z M -15.15625 -18.3125 "></path></g></g></g><g fill="#000000" fill-opacity="1"><g transform="translate(74.059964, 336.067975)"><g><path d="M 1.3125 -12.4375 L 4.296875 -6.984375 L -17.484375 4.890625 L -16.234375 7.1875 L -21.125 9.859375 L -25.359375 2.109375 Z M 1.3125 -12.4375 "></path></g></g></g><g fill="#000000" fill-opacity="1"><g transform="translate(78.267125, 343.042864)"><g></g></g></g><g fill="#000000" fill-opacity="1"><g transform="translate(92.813611, 362.668748)"><g><path d="M -18.953125 -14.34375 C -15.367188 -17 -12.375 -16.707031 -9.96875 -13.46875 L -7.3125 -9.890625 L -11.703125 -6.640625 L -13.546875 -9.125 C -14.046875 -9.789062 -14.632812 -9.875 -15.3125 -9.375 L -24.1875 -2.8125 L -20.515625 2.140625 L -5.21875 -7.046875 L -1.484375 -2 L -16.890625 6.90625 L -15.078125 9.34375 L -19.5625 12.671875 L -32.28125 -4.484375 Z M -18.953125 -14.34375 "></path></g></g></g><g fill="#000000" fill-opacity="1"><g transform="translate(101.999469, 372.334005)"><g><path d="M -12.671875 -4.875 C -9.640625 -7.613281 -6.863281 -7.585938 -4.34375 -4.796875 L -0.75 -0.828125 L -4.796875 2.828125 L -7.5625 -0.21875 C -7.90625 -0.613281 -8.296875 -0.613281 -8.734375 -0.21875 L -17.15625 7.390625 L -14.640625 10.171875 L -18.765625 13.921875 L -25.375 6.625 Z M -12.671875 -4.875 "></path></g></g></g><g fill="#000000" fill-opacity="1"><g transform="translate(119.052119, 388.432065)"><g><path d="M -22.125 -9.09375 C -20.40625 -10.976562 -18.488281 -11.960938 -16.375 -12.046875 C -14.269531 -12.109375 -12.253906 -11.265625 -10.328125 -9.515625 L -7.578125 -7.015625 C -5.660156 -5.273438 -4.664062 -3.441406 -4.59375 -1.515625 C -4.46875 0.304688 -5.171875 2.0625 -6.703125 3.75 L -17.453125 15.5625 L -21.984375 11.453125 L -11.4375 -0.140625 C -10.40625 -1.273438 -10.378906 -2.289062 -11.359375 -3.1875 L -14.078125 -5.671875 C -15.117188 -6.609375 -16.160156 -6.5 -17.203125 -5.34375 L -24.28125 2.421875 C -23.976562 2.691406 -23.660156 2.832031 -23.328125 2.84375 L -19.375 2.9375 L -18.78125 3.484375 L -22.640625 7.734375 L -24.375 7.640625 C -25.601562 7.609375 -26.816406 7.046875 -28.015625 5.953125 L -32.28125 2.0625 Z M -22.125 -9.09375 "></path></g></g></g><g fill="#000000" fill-opacity="1"><g transform="translate(136.156561, 400.170766)"><g><path d="M -24.28125 0.53125 C -22.96875 -1.28125 -21.6875 -2.617188 -20.4375 -3.484375 C -19.195312 -4.316406 -17.460938 -5.0625 -15.234375 -5.71875 L -10.015625 -7.203125 L -4.734375 -3.40625 L -5.234375 -2.71875 L -12.015625 -0.6875 C -13.921875 -0.144531 -15.3125 0.398438 -16.1875 0.953125 C -17.125 1.566406 -18.101562 2.585938 -19.125 4.015625 L -21.03125 6.65625 L -11.515625 13.515625 L -18.546875 23.296875 L -23.578125 19.671875 L -19.796875 14.421875 L -29.328125 7.5625 Z M -24.28125 0.53125 "></path></g></g></g><g fill="#000000" fill-opacity="1"><g transform="translate(145.998341, 405.856669)"><g><path d="M -13.59375 2.65625 L -8.25 5.84375 L -12.796875 13.46875 L -10.546875 14.8125 L -13.1875 19.21875 L -20.78125 14.6875 Z M -13.59375 2.65625 "></path></g></g></g><g fill="#000000" fill-opacity="1"><g transform="translate(152.921911, 409.651589)"><g></g></g></g><g fill="#000000" fill-opacity="1"><g transform="translate(172.459702, 418.14851)"><g><path d="M -23.625 5.640625 C -22.726562 3.585938 -21.753906 2.007812 -20.703125 0.90625 C -19.671875 -0.164062 -18.132812 -1.257812 -16.09375 -2.375 L -11.3125 -4.921875 L -5.34375 -2.328125 L -5.6875 -1.546875 L -11.875 1.859375 C -13.625 2.796875 -14.867188 3.628906 -15.609375 4.359375 C -16.398438 5.148438 -17.148438 6.351562 -17.859375 7.96875 L -19.15625 10.953125 L -8.390625 15.640625 L -13.1875 26.6875 L -18.875 24.203125 L -16.296875 18.265625 L -27.078125 13.578125 Z M -23.625 5.640625 "></path></g></g></g><g fill="#000000" fill-opacity="1"><g transform="translate(194.456461, 424.999745)"><g><path d="M -21.515625 -6.546875 L -15.578125 -4.734375 L -20.734375 12.1875 L -13.421875 14.40625 L -8.265625 -2.515625 L -2.328125 -0.703125 L -9.109375 21.546875 L -28.296875 15.703125 Z M -21.515625 -6.546875 "></path></g></g></g><g fill="#000000" fill-opacity="1"><g transform="translate(206.02743, 426.966704)"><g><path d="M -11.9375 6.984375 L -5.859375 8.234375 L -7.65625 16.921875 L -5.078125 17.453125 L -6.125 22.484375 L -14.78125 20.703125 Z M -11.9375 6.984375 "></path></g></g></g><g fill="#000000" fill-opacity="1"><g transform="translate(217.667466, 428.600718)"><g><path d="M -11.5 7.703125 L -5.34375 8.578125 L -6.59375 17.359375 L -4 17.734375 L -4.71875 22.828125 L -13.46875 21.578125 Z M -11.5 7.703125 "></path></g></g></g><g fill="#000000" fill-opacity="1"><g transform="translate(241.045184, 430.003944)"><g><path d="M -22.5 -1.109375 L -2.4375 -0.125 L -3.578125 23.109375 L -23.640625 22.125 Z M -16.625 4.65625 L -17.234375 16.875 L -9.453125 17.25 L -8.84375 5.03125 Z M -16.625 4.65625 "></path></g></g></g><g fill="#000000" fill-opacity="1"><g transform="translate(248.8982, 429.35502)"><g></g></g></g><g fill="#000000" fill-opacity="1"><g transform="translate(270.129415, 427.225507)"><g><path d="M -18.53125 19.859375 L -15.78125 19.546875 L -17.734375 1.96875 L -11.5625 1.28125 L -9.609375 18.859375 L 0.375 17.75 L 1 23.296875 L -17.90625 25.40625 Z M -18.53125 19.859375 "></path></g></g></g><g fill="#000000" fill-opacity="1"><g transform="translate(280.94816, 424.861563)"><g><path d="M -6.34375 27.1875 C -6.90625 24.320312 -6.445312 21.597656 -4.96875 19.015625 L -3.34375 18.6875 L -3.015625 18.96875 C -3.304688 20.113281 -3.132812 22.285156 -2.5 25.484375 L -1.875 28.6875 L -5.890625 29.46875 Z M -0.390625 26.015625 C -0.710938 24.335938 -0.785156 22.929688 -0.609375 21.796875 C -0.453125 20.648438 0.0625 19.332031 0.9375 17.84375 L 2.5625 17.53125 L 2.890625 17.8125 C 2.617188 18.976562 2.796875 21.144531 3.421875 24.3125 L 4.046875 27.515625 L 0.0625 28.296875 Z M -0.390625 26.015625 "></path></g></g></g><g fill="#000000" fill-opacity="1"><g transform="translate(300.521162, 419.539557)"><g><path d="M -17.890625 5.0625 L -11.921875 3.375 L -7.46875 19.109375 C -7.21875 19.960938 -6.691406 20.273438 -5.890625 20.046875 L 3.21875 17.46875 L 4.734375 22.84375 L -5.609375 25.78125 C -9.566406 26.894531 -12.160156 25.273438 -13.390625 20.921875 Z M -17.890625 5.0625 "></path></g></g></g><g fill="#000000" fill-opacity="1"><g transform="translate(307.357985, 416.558221)"><g></g></g></g><g fill="#000000" fill-opacity="1"><g transform="translate(328.67973, 407.27862)"><g><path d="M -15.28125 17.9375 C -16.46875 15.34375 -16.789062 13 -16.25 10.90625 C -15.59375 8.3125 -13.71875 6.300781 -10.625 4.875 L -0.796875 0.359375 L 1.484375 5.3125 L -2.421875 7.109375 L 7.859375 21.984375 L 2.375 24.5 L -7.6875 9.53125 L -9.1875 10.21875 C -10.695312 10.914062 -11.007812 12.234375 -10.125 14.171875 L -4.03125 27.453125 L -9.71875 30.0625 Z M -15.28125 17.9375 "></path></g></g></g><g fill="#000000" fill-opacity="1"><g transform="translate(338.346163, 401.340895)"><g><path d="M -8.75 5 L -3.34375 1.921875 L 5.4375 17.265625 L 7.515625 16.0625 L 10.296875 20.90625 L 2.8125 25.1875 Z M -8.75 5 "></path></g></g></g><g fill="#000000" fill-opacity="1"><g transform="translate(355.516554, 389.470017)"><g><path d="M -6.890625 26.28125 L -4.609375 24.703125 L -14.671875 10.15625 L -9.578125 6.625 L 0.484375 21.171875 L 8.75 15.453125 L 11.921875 20.03125 L -3.71875 30.859375 Z M -6.890625 26.28125 "></path></g></g></g><g fill="#000000" fill-opacity="1"><g transform="translate(371.183472, 375.778462)"><g><path d="M -3.96875 26.859375 L -1.890625 25.046875 L -13.484375 11.6875 L -8.796875 7.625 L 2.796875 20.984375 L 10.390625 14.40625 L 14.046875 18.625 L -0.3125 31.078125 Z M -3.96875 26.859375 "></path></g></g></g><g fill="#000000" fill-opacity="1"><g transform="translate(376.432529, 369.914936)"><g></g></g></g><g fill="#000000" fill-opacity="1"><g transform="translate(392.001449, 351.746041)"><g><path d="M -3.5625 26.53125 C -5.457031 24.945312 -6.851562 23.492188 -7.75 22.171875 C -8.71875 20.742188 -9.460938 18.929688 -9.984375 16.734375 L -10.859375 12.984375 L -6.75 8.078125 L -6.125 8.59375 L -4.640625 14.515625 C -4.171875 16.253906 -3.550781 17.632812 -2.78125 18.65625 C -2.28125 19.363281 -1.257812 20.363281 0.28125 21.65625 L 3.03125 23.953125 L 12.265625 12.921875 L 16.53125 16.5 L 3.328125 32.296875 Z M -11.09375 2.171875 L -7.15625 -2.53125 L 9.265625 11.1875 L 5.328125 15.890625 Z M -11.09375 2.171875 "></path></g></g></g><g fill="#000000" fill-opacity="1"><g transform="translate(403.23206, 335.234473)"><g><path d="M -10.234375 15.53125 L -6.8125 10.34375 L 6.84375 19.34375 C 7.582031 19.832031 8.179688 19.726562 8.640625 19.03125 L 13.84375 11.125 L 18.5 14.203125 L 12.578125 23.1875 C 10.316406 26.625 7.300781 27.097656 3.53125 24.609375 Z M -10.234375 15.53125 "></path></g></g></g><g fill="#000000" fill-opacity="1"><g transform="translate(411.992294, 317.2302)"><g><path d="M -9.328125 18.015625 L -0.71875 1.375 L 4.125 3.890625 L -0.6875 13.203125 L 10.171875 18.828125 L 14.84375 9.796875 L 19.796875 12.359375 L 12.3125 26.828125 L -3.5 18.640625 L -4.484375 20.53125 Z M -9.328125 18.015625 "></path></g></g></g><g fill="#000000" fill-opacity="1"><g transform="translate(419.836672, 297.301398)"><g><path d="M 8 25.15625 C 6.9375 24.738281 6.117188 24.160156 5.546875 23.421875 C 5.140625 22.921875 4.726562 22.210938 4.3125 21.296875 C 4.007812 20.597656 3.757812 20.035156 3.5625 19.609375 C 3.375 19.179688 3.238281 18.898438 3.15625 18.765625 L -0.28125 19.6875 C -1.476562 20.007812 -2.207031 20.160156 -2.46875 20.140625 C -3.050781 20.191406 -3.796875 20.046875 -4.703125 19.703125 L -7.234375 18.71875 L -0.65625 1.703125 L 4.4375 3.671875 L 0.28125 14.421875 L 0.3125 14.4375 C 1.84375 13.363281 3.679688 12.617188 5.828125 12.203125 L 20.640625 9.359375 L 21.234375 9.578125 L 18.9375 15.546875 L 7.515625 17.671875 C 7.804688 18.296875 8.394531 18.78125 9.28125 19.125 L 16.484375 21.90625 L 14.28125 27.578125 Z M 8 25.15625 "></path></g></g></g><g fill="#000000" fill-opacity="1"><g transform="translate(421.433805, 292.012649)"><g><path d="M 22.734375 12.640625 C 21.128906 12.148438 19.921875 11.640625 19.109375 11.109375 C 18.003906 10.378906 17 9.296875 16.09375 7.859375 L 16.640625 6.0625 L 17.046875 5.90625 C 17.929688 6.664062 19.929688 7.523438 23.046875 8.484375 L 26.171875 9.4375 L 24.96875 13.328125 Z M 22.734375 12.640625 "></path></g></g></g><g fill="#000000" fill-opacity="1"><g transform="translate(424.274625, 280.460124)"><g><path d="M 6.390625 12.265625 L 7.9375 6.25 L 16.546875 8.453125 L 17.203125 5.90625 L 22.171875 7.1875 L 19.96875 15.75 Z M 6.390625 12.265625 "></path></g></g></g><g fill="#000000" fill-opacity="1"><g transform="translate(427.871915, 256.983475)"><g><path d="M 10.53125 24.609375 C 8.082031 24.222656 6.132812 23.691406 4.6875 23.015625 C 3.125 22.285156 1.5625 21.113281 0 19.5 L -2.671875 16.703125 L -1.65625 10.40625 L -0.859375 10.53125 L 3.4375 14.84375 C 4.738281 16.09375 5.976562 16.960938 7.15625 17.453125 C 7.957031 17.804688 9.351562 18.144531 11.34375 18.46875 L 14.875 19.03125 L 17.140625 4.8125 L 22.640625 5.6875 L 19.390625 26.03125 Z M -8.421875 7.546875 L -7.453125 1.484375 L 13.6875 4.859375 L 12.71875 10.921875 Z M -8.421875 7.546875 "></path></g></g></g></svg>